<svg width="345" height="119" viewBox="0 0 345 119" fill="none" xmlns="http://www.w3.org/2000/svg">
<g clip-path="url(#clip0_479:299)">
<path d="M278.206 60.8505C278.206 64.2435 279.59 67.324 281.8 69.5339C284.033 71.7661 287.091 73.1277 290.484 73.1277V85.405C283.698 85.405 277.558 82.6594 273.116 78.2172C268.673 73.7751 265.927 67.6365 265.927 60.8505V23.0589H278.206V60.8505Z" fill="white"/>
<path d="M164.039 23.0589V39.5774C167.656 37.4791 171.853 36.296 176.317 36.296C183.104 36.296 189.243 39.0416 193.686 43.4838C198.128 47.9259 200.874 54.0645 200.874 60.8505C200.874 67.6365 198.128 73.7751 193.686 78.2172C189.243 82.6594 183.104 85.405 176.317 85.405C169.531 85.405 163.392 82.6594 158.949 78.2172C154.507 73.7751 151.761 67.6365 151.761 60.8505V60.5157V23.0589H164.039ZM164.039 60.6049V60.8505C164.039 64.2435 165.423 67.324 167.633 69.5339C169.866 71.7661 172.924 73.1277 176.317 73.1277C179.711 73.1277 182.792 71.7438 185.002 69.5339C187.234 67.3016 188.596 64.2435 188.596 60.8505C188.596 57.4575 187.212 54.377 185.002 52.1671C182.769 49.9349 179.711 48.5732 176.317 48.5732C172.924 48.5732 169.843 49.9572 167.633 52.1671C165.446 54.3324 164.084 57.3013 164.039 60.6049Z" fill="white"/>
<path d="M234.629 85.3827H234.428H234.361H234.227H234.048H234.026H233.825H233.736H233.624H233.423H233.222H233.111H233.021H232.82H232.798H232.619H232.485H232.419H232.218C225.922 85.0702 220.252 82.3915 216.077 78.2172C211.635 73.7751 208.889 67.6365 208.889 60.8505C208.889 54.0645 211.635 47.9259 216.077 43.4838C220.252 39.3095 225.922 36.6308 232.218 36.3183H232.419H232.485H232.619H232.798H232.82H233.021H233.111H233.222H233.423H233.624H233.736H233.825H234.026H234.048H234.227H234.361H234.428H234.629C240.924 36.6308 246.594 39.3095 250.769 43.4838C255.212 47.9259 257.958 54.0645 257.958 60.8505C257.958 67.6365 255.212 73.7751 250.769 78.2172C246.594 82.3915 240.924 85.0702 234.629 85.3827ZM234.227 48.5956H234.182H234.026H234.004H233.892H233.847H233.78H233.691H233.579H233.535H233.468H233.356H233.245H233.2H233.155H233.044H232.954H232.887H232.843H232.731H232.709H232.552H232.508C229.449 48.7965 226.681 50.1135 224.65 52.1671C222.417 54.3994 221.055 57.4575 221.055 60.8505C221.055 64.2435 222.44 67.324 224.65 69.5339C226.681 71.5652 229.449 72.9045 232.508 73.1054H232.552H232.709H232.731H232.843H232.887H232.954H233.044H233.155H233.2H233.245H233.356H233.468H233.535H233.579H233.691H233.78H233.847H233.892H234.004H234.026H234.182H234.227C237.285 72.9045 240.053 71.5652 242.085 69.5339C244.317 67.3016 245.679 64.2435 245.679 60.8505C245.679 57.4575 244.295 54.377 242.085 52.1671C240.053 50.1135 237.285 48.7965 234.227 48.5956Z" fill="white"/>
<path d="M332.722 23.0589V39.5774C329.105 37.4791 324.908 36.296 320.443 36.296C313.657 36.296 307.517 39.0416 303.075 43.4838C298.632 47.9259 295.886 54.0645 295.886 60.8505C295.886 67.6365 298.632 73.7751 303.075 78.2172C307.517 82.6594 313.657 85.405 320.443 85.405C327.23 85.405 333.369 82.6594 337.812 78.2172C342.254 73.7751 345 67.6365 345 60.8505V60.5157V23.0589H332.722ZM332.722 60.6049V60.8505C332.722 64.2435 331.337 67.324 329.127 69.5339C326.895 71.7661 323.837 73.1277 320.443 73.1277C317.05 73.1277 313.969 71.7438 311.759 69.5339C309.527 67.3016 308.165 64.2435 308.165 60.8505C308.165 57.4575 309.549 54.377 311.759 52.1671C313.991 49.9349 317.05 48.5732 320.443 48.5732C323.837 48.5732 326.917 49.9572 329.127 52.1671C331.293 54.3324 332.655 57.3013 332.722 60.6049Z" fill="white"/>
<path d="M40.3848 78.619C35.4958 73.7304 32.4597 66.9668 32.4597 59.4888C32.4597 52.0109 35.4958 45.2696 40.3848 40.3587C45.2739 35.4701 52.0381 32.4342 59.5168 32.4342C66.9954 32.4342 73.7374 35.4701 78.6487 40.3587C83.5377 45.2472 86.5738 52.0109 86.5738 59.4888C86.5738 66.9668 83.5377 73.7081 78.6487 78.619C73.7597 83.5076 66.9954 86.5434 59.5168 86.5434C52.0381 86.5434 45.2739 83.5076 40.3848 78.619ZM43.287 59.4888C43.287 63.9756 45.0953 68.0159 48.0421 70.9625C50.9666 73.8867 55.0296 75.7171 59.5168 75.7171C64.004 75.7171 68.0447 73.909 70.9915 70.9625C73.916 68.0383 75.7466 63.9756 75.7466 59.4888C75.7466 55.0021 73.9383 50.9617 70.9915 48.0152C68.067 45.091 64.004 43.2605 59.5168 43.2605C55.0296 43.2605 50.9889 45.0687 48.0421 48.0152C45.0953 50.9617 43.287 55.0244 43.287 59.4888Z" fill="white"/>
<path fill-rule="evenodd" clip-rule="evenodd" d="M108.563 21.2508C108.563 15.2684 103.719 10.4245 97.7359 10.4245C91.753 10.4245 86.9309 15.2684 86.9309 21.2508C86.9309 27.2332 91.7753 32.0548 97.7359 32.0548C103.696 32.0548 108.563 27.2332 108.563 21.2508Z" fill="white"/>
<path d="M72.1075 12.4781C69.9867 11.9201 67.9106 11.496 65.8567 11.2281C63.8475 10.9602 61.7267 10.8263 59.4943 10.8263C46.0551 10.8263 33.8883 16.2729 25.0702 25.0902C16.2521 33.8852 10.805 46.0732 10.805 59.5112C10.805 72.9492 16.2521 85.1148 25.0702 93.9321C33.866 102.727 46.0551 108.196 59.4943 108.196C72.9335 108.196 85.1003 102.749 93.9184 93.9321C102.737 85.1148 108.184 72.9492 108.184 59.5112C108.184 57.2789 108.05 55.1583 107.782 53.1493C107.514 51.118 107.09 49.0197 106.532 46.8991L116.979 44.1088C117.627 46.5642 118.14 49.109 118.475 51.743C118.832 54.3994 119.011 56.9887 119.011 59.5112C119.011 75.9403 112.358 90.807 101.576 101.589C90.8153 112.348 75.925 119.022 59.4943 119.022C43.0636 119.022 28.1956 112.37 17.413 101.589C6.65265 90.807 0 75.918 0 59.4888C0 43.0597 6.65265 28.193 17.4353 17.4337C28.1956 6.65204 43.0636 0 59.4943 0C61.9946 0 64.5842 0.178578 67.2632 0.535734C69.8974 0.892891 72.4424 1.38398 74.8981 2.03133L72.1075 12.4781Z" fill="white"/>
</g>
<defs>
<clipPath id="clip0_479:299">
<rect width="345" height="119" fill="white"/>
</clipPath>
</defs>
</svg>
